<svg width="64" height="27" viewBox="0 0 64 27" fill="none"
  xmlns="http://www.w3.org/2000/svg">
  <rect width="64" height="27" rx="13.5" fill="#A0A0A0"/>
  <path d="M16.4563 22H19.2883C21.9283 22 23.2963 20.608 23.2963 18.016V16.576C23.2963 14.8 22.7443 13.552 21.3283 13.072V13.024C22.5043 12.544 23.0323 11.464 23.0323 9.736V9.064C23.0323 6.472 21.8563 5.2 19.1203 5.2H16.4563C15.6883 5.2 15.1363 5.752 15.1363 6.52V20.68C15.1363 21.448 15.6883 22 16.4563 22ZM17.7763 12.04V7.6H19.0483C19.9843 7.6 20.3923 8.128 20.3923 9.328V10.264C20.3923 11.608 19.7923 12.04 18.8083 12.04H17.7763ZM17.7763 19.6V14.44H18.9523C20.1523 14.44 20.6563 14.92 20.6563 16.48V17.944C20.6563 19.192 20.1763 19.6 19.2883 19.6H17.7763ZM26.1595 22H30.9835C31.6795 22 32.1835 21.496 32.1835 20.8C32.1835 20.104 31.6795 19.6 30.9835 19.6H27.4795V14.44H30.0475C30.7435 14.44 31.2475 13.936 31.2475 13.24C31.2475 12.544 30.7435 12.04 30.0475 12.04H27.4795V7.6H30.9835C31.6795 7.6 32.1835 7.096 32.1835 6.4C32.1835 5.704 31.6795 5.2 30.9835 5.2H26.1595C25.3915 5.2 24.8395 5.752 24.8395 6.52V20.68C24.8395 21.448 25.3915 22 26.1595 22ZM36.9422 22.144C37.7822 22.144 38.2622 21.664 38.2622 20.824V7.6H39.9662C40.7342 7.6 41.1662 7.168 41.1662 6.4C41.1662 5.632 40.7342 5.2 39.9662 5.2H33.9182C33.1502 5.2 32.7182 5.632 32.7182 6.4C32.7182 7.168 33.1502 7.6 33.9182 7.6H35.6222V20.824C35.6222 21.664 36.1022 22.144 36.9422 22.144ZM41.7988 22.144C42.4708 22.144 42.9268 21.76 43.0468 20.92L43.3588 18.712H46.5028V18.664L46.8148 20.872C46.9348 21.64 47.3908 22.144 48.1828 22.144C48.9508 22.144 49.3828 21.616 49.3828 20.8C49.3828 20.68 49.3828 20.56 49.3588 20.416L47.0788 6.76C46.8868 5.656 46.1428 4.96 45.0388 4.96C43.9348 4.96 43.1668 5.656 42.9748 6.76L40.6948 20.416C40.6708 20.56 40.6468 20.704 40.6468 20.848C40.6468 21.736 41.1748 22.144 41.7988 22.144ZM43.6708 16.432L44.8948 7.888H44.9428L46.1908 16.432H43.6708Z" fill="white"/>
</svg>
