<svg width="271" height="42" viewBox="0 0 271 42" fill="none" xmlns="http://www.w3.org/2000/svg">
<path d="M15.2148 4.51624C17.0437 -0.0907335 23.3428 -0.0894542 25.1747 4.51624L40.489 40.9839H30.8981L27.5739 32.5161H12.5881L9.37296 40.9839H0L15.2148 4.51624ZM19.9448 12.6452L15.2583 25.0645H24.6857L19.9448 12.6452Z" fill="white"/>
<path d="M49.8189 4.40322C49.8189 2.53258 51.2828 1.01613 53.0886 1.01613H61.3717L77.7743 28.7903H77.8833V1.01613H86.3844V37.5968C86.3844 39.4674 84.9205 40.9839 83.1147 40.9839H75.2676L58.429 12.5323H58.32V40.9839H49.8189V4.40322Z" fill="white"/>
<path d="M124.935 11.4032C124.099 10.3495 123.064 9.54032 121.829 8.9758C120.63 8.41129 119.231 8.12903 117.633 8.12903C116.034 8.12903 114.545 8.44892 113.164 9.08871C111.82 9.72849 110.639 10.6317 109.622 11.7984C108.641 12.9274 107.86 14.2823 107.279 15.8629C106.734 17.4435 106.462 19.1559 106.462 21C106.462 22.8817 106.734 24.6129 107.279 26.1935C107.86 27.7366 108.641 29.0914 109.622 30.2581C110.603 31.3871 111.747 32.2715 113.055 32.9113C114.4 33.5511 115.835 33.871 117.36 33.871C119.104 33.871 120.648 33.4946 121.992 32.7419C123.337 31.9892 124.445 30.9355 125.316 29.5806L132.401 35.0564C130.766 37.4274 128.695 39.1774 126.188 40.3065C123.682 41.4355 121.102 42 118.45 42C115.435 42 112.656 41.5108 110.113 40.5323C107.57 39.5538 105.372 38.1613 103.519 36.3548C101.666 34.5108 100.213 32.2903 99.1594 29.6935C98.1422 27.0968 97.6335 24.1989 97.6335 21C97.6335 17.8011 98.1422 14.9032 99.1594 12.3064C100.213 9.70968 101.666 7.50806 103.519 5.70161C105.372 3.85753 107.57 2.44624 110.113 1.46774C112.656 0.489247 115.435 0 118.45 0C119.54 0 120.666 0.112902 121.829 0.338708C123.028 0.52688 124.19 0.846773 125.316 1.29839C126.479 1.75 127.587 2.35215 128.641 3.10484C129.694 3.85753 130.639 4.77957 131.474 5.87096L124.935 11.4032Z" fill="white"/>
<path d="M142.459 1.01613H150.96V15.9193H167.471V1.01613H175.972V40.9839H167.471V23.7097H150.96V40.9839H142.459V1.01613Z" fill="white"/>
<path d="M187.187 21C187.187 17.8011 187.695 14.9032 188.712 12.3064C189.766 9.70968 191.219 7.50806 193.072 5.70161C194.925 3.85753 197.123 2.44624 199.666 1.46774C202.209 0.489247 204.988 0 208.003 0C211.019 0 213.798 0.489247 216.341 1.46774C218.884 2.44624 221.082 3.85753 222.935 5.70161C224.787 7.50806 226.222 9.70968 227.24 12.3064C228.293 14.9032 228.82 17.8011 228.82 21C228.82 24.1989 228.293 27.0968 227.24 29.6935C226.222 32.2903 224.787 34.5108 222.935 36.3548C221.082 38.1613 218.884 39.5538 216.341 40.5323C213.798 41.5108 211.019 42 208.003 42C204.988 42 202.209 41.5108 199.666 40.5323C197.123 39.5538 194.925 38.1613 193.072 36.3548C191.219 34.5108 189.766 32.2903 188.712 29.6935C187.695 27.0968 187.187 24.1989 187.187 21ZM196.015 21C196.015 22.8817 196.287 24.6129 196.832 26.1935C197.413 27.7366 198.231 29.0914 199.284 30.2581C200.338 31.3871 201.591 32.2715 203.044 32.9113C204.534 33.5511 206.187 33.871 208.003 33.871C209.82 33.871 211.455 33.5511 212.908 32.9113C214.397 32.2715 215.669 31.3871 216.722 30.2581C217.776 29.0914 218.575 27.7366 219.12 26.1935C219.701 24.6129 219.992 22.8817 219.992 21C219.992 19.1559 219.701 17.4435 219.12 15.8629C218.575 14.2823 217.776 12.9274 216.722 11.7984C215.669 10.6317 214.397 9.72849 212.908 9.08871C211.455 8.44892 209.82 8.12903 208.003 8.12903C206.187 8.12903 204.534 8.44892 203.044 9.08871C201.591 9.72849 200.338 10.6317 199.284 11.7984C198.231 12.9274 197.413 14.2823 196.832 15.8629C196.287 17.4435 196.015 19.1559 196.015 21Z" fill="white"/>
<path d="M240.047 4.40322C240.047 2.53258 241.511 1.01613 243.317 1.01613H254.979C256.941 1.01613 258.793 1.22312 260.537 1.6371C262.317 2.01344 263.861 2.67204 265.169 3.6129C266.513 4.51613 267.567 5.75806 268.33 7.33871C269.129 8.88172 269.529 10.8199 269.529 13.1532C269.529 15.9758 268.82 18.3844 267.403 20.379C265.987 22.336 263.916 23.578 261.191 24.1048L271 40.9839H260.81L252.745 25.0081H248.549V40.9839H240.047V4.40322ZM248.549 17.5564H253.562C254.325 17.5564 255.124 17.5376 255.96 17.5C256.832 17.4247 257.613 17.2554 258.303 16.9919C258.993 16.6909 259.556 16.2392 259.992 15.6371C260.464 15.0349 260.701 14.1882 260.701 13.0968C260.701 12.0806 260.501 11.2715 260.101 10.6694C259.702 10.0672 259.193 9.61559 258.575 9.31451C257.958 8.9758 257.249 8.75 256.45 8.6371C255.651 8.52419 254.87 8.46774 254.107 8.46774H248.549V17.5564Z" fill="white"/>
</svg>
